<svg id="svg" xmlns="http://www.w3.org/2000/svg" xmlns:xlink="http://www.w3.org/1999/xlink" width="400" height="85.15086718935613" viewBox="0, 0, 400,85.15086718935613"><g id="svgg"><path id="path0" d="M33.667 29.207 C 33.438 29.308,32.087 30.047,30.667 30.850 C 27.897 32.415,26.850 32.993,25.208 33.859 C 24.635 34.161,24.167 34.467,24.167 34.538 C 24.167 34.609,24.073 34.669,23.958 34.671 C 23.750 34.675,17.826 37.993,18.019 37.998 C 18.075 37.999,18.517 37.925,19.001 37.833 C 19.608 37.718,20.092 37.722,20.565 37.847 C 21.121 37.993,26.950 41.095,28.260 41.942 C 28.672 42.208,28.906 42.093,34.496 38.894 C 39.572 35.989,40.308 34.957,39.437 31.963 C 38.808 29.797,35.696 28.311,33.667 29.207 M54.000 43.934 C 52.304 44.906,50.467 45.940,49.917 46.233 C 47.647 47.439,47.049 47.964,46.511 49.222 C 45.255 52.160,47.747 55.553,50.970 55.292 C 51.778 55.227,55.667 53.470,55.667 53.171 C 55.667 53.122,55.908 52.974,56.204 52.844 C 56.499 52.713,59.092 51.269,61.966 49.636 C 64.839 48.003,67.251 46.667,67.325 46.667 C 67.399 46.667,67.545 46.563,67.651 46.436 C 67.812 46.242,67.724 46.230,67.092 46.365 C 65.752 46.651,64.851 46.325,61.001 44.160 C 59.052 43.063,57.373 42.167,57.270 42.167 C 57.167 42.168,55.696 42.963,54.000 43.934 " stroke="none" fill="#f37f1c" fill-rule="evenodd"></path><path id="path1" d="M17.940 38.163 C 15.757 38.861,14.670 41.187,15.417 43.561 C 15.860 44.970,16.382 45.374,21.520 48.284 C 24.121 49.758,26.587 51.156,27.000 51.391 C 27.412 51.627,28.012 51.951,28.333 52.112 C 28.654 52.273,29.867 52.950,31.029 53.616 C 34.063 55.355,34.966 55.603,36.512 55.125 C 39.495 54.202,40.656 50.346,38.632 48.084 C 38.023 47.403,35.309 45.667,34.855 45.667 C 34.752 45.667,34.667 45.609,34.667 45.538 C 34.667 45.467,34.198 45.161,33.625 44.859 C 33.052 44.557,32.171 44.080,31.667 43.801 C 31.162 43.521,29.962 42.882,29.000 42.380 C 28.037 41.878,25.981 40.749,24.430 39.871 C 20.513 37.654,19.977 37.513,17.940 38.163 " stroke="none" fill="#4483f3" fill-rule="evenodd"></path><path id="path2" d="M48.775 29.406 C 45.188 31.164,45.337 35.696,49.043 37.590 C 49.524 37.835,50.404 38.313,51.000 38.652 C 51.596 38.991,52.533 39.518,53.083 39.822 C 53.633 40.127,54.801 40.779,55.677 41.271 C 56.554 41.764,57.313 42.167,57.364 42.167 C 57.415 42.167,59.052 43.063,61.001 44.160 C 64.963 46.388,65.720 46.651,67.248 46.334 C 70.052 45.752,71.521 42.833,70.283 40.303 C 69.656 39.022,69.352 38.793,65.000 36.333 C 62.846 35.116,60.248 33.643,59.226 33.060 C 58.205 32.477,57.311 32.000,57.239 32.000 C 57.168 32.000,56.991 31.898,56.846 31.773 C 56.544 31.512,55.198 30.762,53.171 29.724 C 51.431 28.832,50.138 28.739,48.775 29.406 " stroke="none" fill="#0c9c5b" fill-rule="evenodd"></path><path id="path3" d="M90.250 32.228 C 78.758 35.238,80.951 52.354,92.833 52.397 C 98.769 52.419,102.676 48.671,102.664 42.967 C 102.660 41.191,103.071 41.322,97.655 41.372 L 92.917 41.417 92.868 42.708 L 92.819 44.000 96.427 44.000 C 99.323 44.000,100.019 44.043,99.952 44.217 C 99.907 44.337,99.744 44.880,99.591 45.425 C 97.833 51.688,87.951 51.263,85.814 44.833 C 83.317 37.321,92.234 31.105,97.898 36.409 L 98.379 36.860 99.273 35.977 C 100.350 34.914,100.357 34.841,99.458 34.122 C 97.176 32.297,93.150 31.469,90.250 32.228 M131.083 32.232 C 123.511 34.082,120.947 44.005,126.594 49.610 C 133.138 56.105,145.070 50.668,143.432 41.937 L 143.317 41.328 138.534 41.372 L 133.750 41.417 133.701 42.708 L 133.653 44.000 137.228 44.000 L 140.803 44.000 140.597 44.875 C 139.865 47.984,137.322 49.871,133.833 49.896 C 125.276 49.957,123.320 37.552,131.457 34.829 C 133.894 34.014,137.191 34.750,138.779 36.464 L 139.178 36.894 140.089 35.994 C 140.590 35.500,141.000 35.000,141.000 34.885 C 141.000 34.589,139.509 33.444,138.552 33.005 C 138.111 32.802,137.600 32.568,137.417 32.484 C 136.341 31.993,132.662 31.846,131.083 32.232 M258.383 32.301 C 254.598 33.648,253.318 38.585,256.161 40.868 C 257.190 41.694,257.417 41.830,258.481 42.263 C 259.087 42.509,259.820 42.813,260.109 42.939 C 260.397 43.064,260.723 43.167,260.832 43.167 C 261.232 43.167,263.134 44.148,263.704 44.649 C 265.296 46.046,264.914 48.473,262.944 49.486 C 260.693 50.644,257.872 49.458,256.816 46.910 C 256.448 46.022,256.281 45.846,256.095 46.148 C 256.044 46.230,255.796 46.348,255.543 46.411 C 255.149 46.509,254.044 46.963,253.855 47.105 C 253.659 47.251,255.116 49.739,255.805 50.434 C 257.883 52.531,261.407 53.071,264.325 51.738 C 269.004 49.602,268.394 43.097,263.333 41.172 C 263.012 41.050,262.525 40.858,262.250 40.745 C 261.975 40.633,261.412 40.419,261.000 40.270 C 257.927 39.161,256.809 37.849,257.605 36.283 C 258.914 33.708,263.446 34.088,264.367 36.851 C 264.466 37.149,266.829 36.165,266.831 35.824 C 266.851 33.383,261.552 31.174,258.383 32.301 M295.853 32.438 C 294.497 33.388,295.053 35.613,296.687 35.775 C 298.537 35.958,299.509 33.876,298.157 32.625 C 297.573 32.085,296.483 31.997,295.853 32.438 M336.083 32.568 C 334.276 33.431,333.635 34.513,333.532 36.875 L 333.461 38.500 332.231 38.500 L 331.000 38.500 331.000 39.750 L 331.000 41.000 332.250 41.000 L 333.500 41.000 333.500 46.500 L 333.500 52.000 334.833 52.000 L 336.167 52.000 336.167 46.500 L 336.167 41.000 339.083 41.000 L 342.000 41.000 342.000 46.500 L 342.000 52.000 343.333 52.000 L 344.667 52.000 344.667 45.250 L 344.667 38.500 340.417 38.500 L 336.167 38.500 336.168 37.625 C 336.170 35.263,337.480 34.163,339.437 34.879 C 339.744 34.992,339.814 34.926,339.964 34.379 C 340.060 34.033,340.216 33.501,340.311 33.196 C 340.641 32.140,337.849 31.725,336.083 32.568 M342.128 32.653 C 341.375 33.326,341.336 34.578,342.045 35.288 C 342.733 35.976,344.150 35.964,344.751 35.266 C 346.287 33.477,343.884 31.083,342.128 32.653 M105.500 42.167 L 105.500 52.000 109.503 52.000 C 113.912 52.000,115.106 51.817,116.848 50.877 C 123.386 47.345,123.225 36.684,116.583 33.396 C 114.890 32.557,113.343 32.333,109.244 32.333 L 105.500 32.333 105.500 42.167 M152.333 42.172 L 152.333 52.011 156.625 51.960 C 162.343 51.893,163.490 51.555,165.759 49.268 C 168.959 46.043,169.463 39.584,166.778 36.212 C 164.301 33.102,162.175 32.334,156.042 32.333 L 152.333 32.333 152.333 42.172 M199.000 42.167 L 199.000 52.000 200.333 52.000 L 201.667 52.000 201.667 47.833 L 201.667 43.667 205.667 43.667 L 209.667 43.667 209.667 42.417 L 209.667 41.167 205.667 41.167 L 201.667 41.167 201.667 38.083 L 201.667 35.000 206.083 35.000 L 210.500 35.000 210.500 33.667 L 210.500 32.333 204.750 32.333 L 199.000 32.333 199.000 42.167 M362.500 42.167 L 362.500 52.000 363.750 52.000 L 365.000 52.000 365.000 42.167 L 365.000 32.333 363.750 32.333 L 362.500 32.333 362.500 42.167 M378.026 36.321 L 378.083 40.309 377.629 39.757 C 375.418 37.074,370.451 37.778,368.255 41.086 C 363.932 47.600,372.040 56.280,377.499 50.982 L 378.167 50.334 378.167 51.167 L 378.167 52.000 379.417 52.000 L 380.667 52.000 380.667 42.167 L 380.667 32.333 379.318 32.333 L 377.969 32.333 378.026 36.321 M240.667 36.417 L 240.667 38.500 239.417 38.500 L 238.167 38.500 238.167 39.750 L 238.167 41.000 239.409 41.000 L 240.651 41.000 240.701 45.471 L 240.750 49.942 241.205 50.628 C 242.118 52.007,244.129 52.588,246.292 52.097 C 246.819 51.977,247.050 51.487,246.686 51.262 C 246.604 51.211,246.491 50.920,246.433 50.614 C 246.259 49.685,246.008 49.462,245.396 49.694 C 243.673 50.346,243.175 49.193,243.170 44.542 L 243.167 41.000 244.833 41.000 L 246.500 41.000 246.500 39.750 L 246.500 38.500 244.833 38.500 L 243.167 38.500 243.167 36.417 L 243.167 34.333 241.917 34.333 L 240.667 34.333 240.667 36.417 M114.289 35.333 C 117.367 36.415,118.838 38.657,118.829 42.255 C 118.817 47.272,116.171 49.496,110.208 49.499 L 108.167 49.500 108.167 42.250 L 108.167 35.000 110.754 35.000 C 112.914 35.000,113.498 35.055,114.289 35.333 M161.833 35.601 C 164.505 36.862,165.678 38.889,165.679 42.250 C 165.680 47.281,163.042 49.495,157.042 49.499 L 155.000 49.500 155.000 42.236 L 155.000 34.972 157.875 35.031 C 160.679 35.088,160.777 35.102,161.833 35.601 M174.221 38.397 C 170.661 39.561,168.503 44.924,170.247 48.269 C 170.385 48.533,170.498 48.811,170.499 48.886 C 170.501 49.102,171.349 50.197,171.994 50.815 C 174.826 53.530,180.563 52.744,182.453 49.381 L 182.818 48.733 181.637 48.176 L 180.456 47.619 179.901 48.268 C 179.596 48.625,179.343 48.966,179.340 49.027 C 179.321 49.351,177.543 50.000,176.676 49.998 C 174.532 49.995,172.500 48.141,172.500 46.189 C 172.500 45.833,172.501 45.833,177.750 45.833 L 183.000 45.833 182.999 45.208 C 182.993 42.260,181.690 39.867,179.473 38.731 C 178.393 38.178,175.459 37.991,174.221 38.397 M216.083 38.275 C 211.038 39.598,209.450 46.978,213.404 50.728 C 216.126 53.309,221.066 52.969,223.450 50.035 C 224.387 48.884,224.364 48.772,223.073 48.150 L 221.980 47.622 221.155 48.548 C 219.492 50.415,217.145 50.533,215.276 48.845 C 214.666 48.293,214.000 46.986,214.000 46.339 L 214.000 45.833 219.250 45.833 L 224.500 45.833 224.497 44.958 C 224.488 42.196,223.054 39.743,220.833 38.694 C 219.925 38.264,217.081 38.014,216.083 38.275 M229.222 38.466 C 224.774 40.050,225.435 44.864,230.266 46.071 C 233.708 46.931,234.333 47.285,234.333 48.371 C 234.333 50.782,229.525 50.475,228.499 47.998 C 228.267 47.438,228.270 47.440,227.873 47.661 C 227.714 47.749,227.196 47.981,226.722 48.176 C 225.654 48.614,225.713 48.991,227.087 50.475 C 230.396 54.050,237.167 52.555,237.167 48.250 C 237.167 45.976,235.484 44.600,231.750 43.821 C 228.872 43.220,228.146 41.867,230.143 40.826 C 231.280 40.234,234.129 40.814,234.172 41.647 C 234.210 42.393,234.697 42.372,236.458 41.548 L 237.000 41.295 236.638 40.652 C 235.452 38.541,231.929 37.503,229.222 38.466 M275.167 38.318 C 274.277 38.610,273.306 39.229,272.830 39.806 L 272.333 40.409 272.333 39.455 L 272.333 38.500 271.083 38.500 L 269.833 38.500 269.833 48.250 L 269.833 58.000 271.184 58.000 L 272.535 58.000 272.476 54.094 C 272.435 51.427,272.470 50.287,272.583 50.498 C 273.520 52.238,277.374 53.027,279.551 51.926 C 285.906 48.711,284.107 38.370,277.167 38.216 C 276.296 38.196,275.396 38.242,275.167 38.318 M290.583 38.371 C 289.785 38.656,288.669 39.488,288.321 40.058 L 288.001 40.583 288.001 39.542 L 288.000 38.500 286.750 38.500 L 285.500 38.500 285.500 45.250 L 285.500 52.000 286.823 52.000 L 288.146 52.000 288.198 47.708 C 288.249 43.520,288.260 43.401,288.648 42.777 C 289.516 41.380,290.274 40.965,291.924 40.982 L 293.138 40.994 293.486 39.965 C 293.956 38.573,293.937 38.396,293.313 38.271 C 292.542 38.117,291.154 38.168,290.583 38.371 M306.659 38.315 C 306.055 38.512,304.854 39.294,304.393 39.791 L 304.000 40.215 304.000 39.358 L 304.000 38.500 302.667 38.500 L 301.333 38.500 301.333 45.250 L 301.333 52.000 302.652 52.000 L 303.970 52.000 304.038 47.875 C 304.093 44.579,304.161 43.608,304.379 43.042 C 305.415 40.351,308.551 39.659,310.202 41.756 C 310.577 42.233,310.584 42.325,310.634 47.121 L 310.685 52.000 312.093 52.000 L 313.500 52.000 313.499 47.625 C 313.497 41.085,313.122 39.777,310.917 38.620 C 310.191 38.239,307.489 38.045,306.659 38.315 M320.000 38.317 C 314.322 40.174,313.697 49.139,319.060 51.812 C 321.340 52.949,323.993 52.603,325.811 50.932 L 326.371 50.417 326.298 51.750 C 326.059 56.080,320.719 57.668,318.725 54.002 C 318.358 53.328,318.257 53.326,316.826 53.965 L 315.815 54.417 316.258 55.250 C 318.294 59.082,324.885 59.485,327.589 55.943 C 328.902 54.224,328.890 54.308,328.960 45.958 L 329.022 38.500 327.677 38.500 L 326.333 38.500 326.333 39.325 L 326.333 40.150 325.724 39.591 C 324.403 38.381,321.666 37.772,320.000 38.317 M351.523 38.349 C 347.741 39.496,345.785 44.815,347.715 48.708 C 349.974 53.267,356.088 53.848,359.375 49.816 C 360.191 48.815,360.194 48.825,358.820 48.160 C 357.673 47.605,357.635 47.599,357.461 47.920 C 356.491 49.709,353.994 50.520,352.207 49.627 C 350.774 48.911,350.042 47.935,349.770 46.375 L 349.675 45.833 354.944 45.833 L 360.213 45.833 360.124 44.375 C 359.961 41.722,358.769 39.751,356.710 38.733 C 355.649 38.208,352.707 37.990,351.523 38.349 M183.500 38.752 C 183.500 38.891,183.574 39.135,183.665 39.294 C 183.818 39.563,184.745 41.828,185.829 44.583 C 186.436 46.125,186.329 45.858,187.636 49.083 L 188.785 51.917 190.184 51.963 L 191.583 52.010 192.229 50.380 C 192.584 49.483,192.975 48.525,193.098 48.250 C 193.220 47.975,193.738 46.700,194.249 45.417 C 194.759 44.133,195.247 42.933,195.332 42.750 C 195.591 42.197,196.855 39.104,196.950 38.792 C 197.030 38.530,196.895 38.500,195.635 38.500 L 194.231 38.500 193.956 39.125 C 193.804 39.469,193.574 40.050,193.443 40.417 C 193.143 41.263,192.049 44.092,191.767 44.750 C 191.650 45.025,191.262 46.016,190.905 46.951 L 190.256 48.652 189.998 48.118 C 189.855 47.824,189.564 47.096,189.350 46.500 C 188.954 45.397,187.973 42.819,186.894 40.042 L 186.294 38.500 184.897 38.500 C 183.761 38.500,183.500 38.547,183.500 38.752 M295.667 45.250 L 295.667 52.000 297.000 52.000 L 298.333 52.000 298.333 45.250 L 298.333 38.500 297.000 38.500 L 295.667 38.500 295.667 45.250 M178.283 40.987 C 179.106 41.394,179.813 42.256,179.999 43.079 L 180.132 43.667 176.388 43.667 L 172.644 43.667 172.752 43.292 C 173.399 41.037,176.105 39.909,178.283 40.987 M219.762 40.965 C 220.663 41.427,221.146 41.990,221.419 42.897 L 221.651 43.667 217.909 43.667 C 215.851 43.667,214.167 43.627,214.167 43.578 C 214.167 41.450,217.590 39.852,219.762 40.965 M278.465 41.067 C 282.268 43.500,281.127 49.654,276.816 49.963 C 271.687 50.330,270.662 42.009,275.667 40.636 C 276.407 40.433,277.812 40.649,278.465 41.067 M323.963 40.981 C 327.828 42.953,326.776 49.703,322.562 49.971 C 317.293 50.307,316.261 41.872,321.417 40.603 C 322.023 40.453,323.300 40.643,323.963 40.981 M355.449 40.916 C 356.057 41.220,356.951 42.183,357.178 42.779 C 357.525 43.693,357.627 43.667,353.667 43.667 C 350.285 43.667,350.000 43.644,350.001 43.375 C 350.002 42.838,350.690 41.862,351.542 41.189 C 352.437 40.483,354.317 40.351,355.449 40.916 M376.061 41.253 C 379.855 43.819,378.101 50.286,373.699 49.961 C 371.709 49.814,370.444 48.651,369.912 46.481 C 368.910 42.394,372.825 39.065,376.061 41.253 " stroke="none" fill="#040404" fill-rule="evenodd"></path><path id="path4" d="" stroke="none" fill="#a85c84" fill-rule="evenodd"></path></g></svg>