<svg id="svg" xmlns="http://www.w3.org/2000/svg" xmlns:xlink="http://www.w3.org/1999/xlink" width="400" height="34.23284502698535" viewBox="0, 0, 400,34.23284502698535"><g id="svgg"><path id="path0" d="M21.583 3.058 C 20.908 3.285,19.098 4.227,17.962 4.942 C 17.620 5.157,17.304 5.333,17.259 5.333 C 17.215 5.333,16.464 5.746,15.591 6.250 C 14.717 6.754,13.958 7.167,13.902 7.167 C 13.847 7.167,13.602 7.308,13.359 7.481 C 13.116 7.653,12.504 8.019,12.000 8.293 C 9.552 9.624,9.053 9.905,8.667 10.165 C 8.438 10.319,8.119 10.493,7.959 10.551 C 7.799 10.609,7.268 10.912,6.779 11.224 C 6.290 11.537,5.746 11.841,5.570 11.899 C 5.394 11.958,5.063 12.153,4.833 12.332 L 4.417 12.659 4.999 12.496 C 6.758 12.004,7.506 12.278,13.101 15.469 C 16.164 17.215,15.953 17.160,17.026 16.500 C 17.473 16.225,17.906 16.000,17.989 16.000 C 18.071 16.000,18.164 15.944,18.194 15.875 C 18.225 15.806,18.550 15.602,18.917 15.421 C 19.283 15.241,19.847 14.932,20.170 14.735 C 20.492 14.539,21.167 14.154,21.670 13.881 C 22.172 13.608,22.846 13.242,23.167 13.067 C 23.487 12.893,23.787 12.713,23.833 12.667 C 23.879 12.621,24.350 12.358,24.880 12.083 C 30.391 9.224,27.422 1.096,21.583 3.058 M45.917 17.563 C 43.541 18.879,43.223 19.057,42.724 19.358 C 42.434 19.532,41.826 19.879,41.373 20.129 C 35.819 23.189,35.495 23.474,34.985 25.753 C 34.542 27.731,35.929 30.167,37.935 30.933 C 39.480 31.523,41.287 31.217,43.417 30.006 C 44.425 29.433,45.737 28.698,46.333 28.373 C 46.929 28.048,47.696 27.607,48.038 27.391 C 48.380 27.176,48.693 27.000,48.734 27.000 C 48.775 27.000,49.845 26.411,51.112 25.691 C 53.655 24.246,54.630 23.699,56.000 22.950 C 56.504 22.675,57.116 22.311,57.359 22.141 C 57.602 21.972,57.869 21.833,57.952 21.833 C 58.035 21.833,58.249 21.724,58.426 21.590 C 58.717 21.371,58.683 21.365,58.083 21.526 C 56.216 22.029,55.417 21.753,50.213 18.811 C 48.452 17.815,46.989 17.002,46.963 17.005 C 46.938 17.007,46.467 17.258,45.917 17.563 " stroke="none" fill="#f37f1c" fill-rule="evenodd"></path><path id="path1" d="M4.167 12.827 C 1.807 13.640,0.668 16.676,1.825 19.066 C 2.259 19.962,3.388 21.132,3.958 21.275 C 4.164 21.327,4.333 21.420,4.333 21.482 C 4.333 21.543,4.540 21.680,4.792 21.786 C 5.044 21.892,5.625 22.196,6.083 22.462 C 8.454 23.837,9.672 24.500,9.828 24.500 C 9.922 24.500,10.001 24.556,10.001 24.625 C 10.002 24.694,10.171 24.831,10.376 24.930 C 10.772 25.121,11.783 25.679,13.833 26.839 C 14.521 27.228,15.396 27.717,15.777 27.927 C 16.159 28.137,17.321 28.791,18.360 29.381 C 21.264 31.030,21.627 31.167,23.083 31.167 C 25.987 31.167,27.833 29.351,27.828 26.500 C 27.824 23.942,27.233 23.283,22.750 20.835 C 22.200 20.535,21.675 20.234,21.583 20.167 C 21.492 20.100,21.061 19.849,20.627 19.610 C 20.193 19.371,19.240 18.836,18.508 18.421 C 17.777 18.006,17.101 17.667,17.006 17.667 C 16.911 17.667,16.833 17.607,16.833 17.533 C 16.833 17.460,16.552 17.300,16.208 17.177 C 15.865 17.055,14.056 16.095,12.190 15.044 C 7.197 12.233,6.470 12.033,4.167 12.827 " stroke="none" fill="#4483f3" fill-rule="evenodd"></path><path id="path2" d="M38.447 3.006 C 36.192 3.574,34.460 6.269,34.993 8.384 C 35.489 10.353,36.161 11.096,38.692 12.471 C 39.182 12.737,39.883 13.124,40.250 13.331 C 41.838 14.228,43.644 15.257,44.417 15.704 C 44.875 15.970,45.456 16.274,45.708 16.380 C 45.960 16.486,46.167 16.624,46.167 16.685 C 46.167 16.747,46.363 16.846,46.603 16.907 C 46.842 16.967,48.474 17.827,50.228 18.819 C 54.830 21.421,55.083 21.537,56.346 21.628 C 62.086 22.042,63.483 15.323,58.258 12.437 C 57.228 11.868,56.851 11.655,54.667 10.417 C 52.407 9.135,52.094 8.961,51.000 8.373 C 50.404 8.053,49.842 7.736,49.750 7.668 C 49.658 7.600,49.228 7.349,48.794 7.110 C 48.037 6.693,46.179 5.643,44.417 4.636 C 41.462 2.946,40.130 2.583,38.447 3.006 " stroke="none" fill="#0c9c5b" fill-rule="evenodd"></path><path id="path3" d="M83.833 6.098 C 77.450 7.264,73.608 12.575,74.577 18.891 C 74.731 19.890,74.913 20.830,74.983 20.979 C 77.633 26.654,82.282 29.182,87.926 28.017 C 92.883 26.994,95.844 23.459,95.895 18.500 L 95.917 16.417 90.625 16.373 L 85.333 16.329 85.333 17.664 L 85.333 19.000 89.253 19.000 L 93.173 19.000 93.064 19.458 C 92.045 23.742,88.645 26.008,84.224 25.351 C 76.350 24.180,74.851 13.078,82.083 9.500 C 84.593 8.259,88.296 8.711,90.530 10.531 C 90.959 10.881,91.374 11.167,91.452 11.167 C 91.657 11.167,93.333 9.440,93.333 9.230 C 93.333 8.766,91.101 7.212,89.833 6.793 C 89.421 6.657,88.821 6.458,88.500 6.351 C 87.890 6.148,84.553 5.967,83.833 6.098 M128.000 6.101 C 120.190 7.589,116.328 15.382,119.880 22.492 C 123.640 30.019,135.520 30.191,139.148 22.770 C 140.001 21.024,140.439 18.118,140.062 16.708 L 139.961 16.333 134.814 16.333 L 129.667 16.333 129.667 17.667 L 129.667 19.000 133.478 19.000 L 137.290 19.000 137.145 19.792 C 136.215 24.850,129.799 27.147,125.167 24.079 C 119.856 20.562,120.463 12.394,126.250 9.500 C 127.510 8.870,131.157 8.626,132.183 9.103 C 133.762 9.837,134.570 10.305,134.953 10.705 C 135.551 11.329,135.619 11.309,136.719 10.198 L 137.677 9.230 137.047 8.654 C 134.940 6.727,130.819 5.565,128.000 6.101 M265.500 6.105 C 262.586 6.676,260.648 8.739,260.524 11.400 C 260.383 14.424,261.697 16.073,265.369 17.477 C 269.842 19.188,270.399 19.509,270.978 20.704 C 272.148 23.121,270.395 25.386,267.344 25.398 C 265.322 25.405,263.644 24.242,262.824 22.264 C 262.452 21.364,262.127 21.128,261.742 21.477 C 261.655 21.556,261.180 21.761,260.688 21.934 C 259.541 22.335,259.522 22.414,260.222 23.868 C 261.829 27.203,265.213 28.864,268.850 28.103 C 270.173 27.826,271.167 27.482,271.167 27.300 C 271.167 27.227,271.262 27.167,271.378 27.167 C 272.671 27.167,274.241 24.384,274.246 22.083 C 274.254 18.596,272.916 17.152,267.917 15.251 C 264.182 13.831,263.498 13.294,263.502 11.786 C 263.508 9.910,264.755 8.917,267.104 8.917 C 269.105 8.917,269.789 9.336,270.929 11.263 C 271.096 11.545,271.147 11.548,271.679 11.304 C 271.993 11.160,272.569 10.906,272.958 10.739 C 273.771 10.391,273.778 10.371,273.341 9.516 C 272.087 7.057,268.531 5.511,265.500 6.105 M305.216 6.493 C 303.363 7.624,304.092 10.167,306.270 10.167 C 307.048 10.167,307.182 10.109,307.649 9.578 C 309.157 7.861,307.148 5.315,305.216 6.493 M349.367 6.413 C 346.794 7.216,345.833 8.603,345.833 11.514 L 345.833 13.167 344.417 13.167 L 343.000 13.167 343.000 14.417 L 343.000 15.667 344.417 15.667 L 345.833 15.667 345.833 21.750 L 345.833 27.833 347.250 27.833 L 348.667 27.833 348.667 21.750 L 348.667 15.667 351.833 15.667 L 355.000 15.667 355.000 21.750 L 355.000 27.833 356.417 27.833 L 357.833 27.833 357.833 20.500 L 357.833 13.167 353.250 13.167 L 348.667 13.167 348.668 12.125 C 348.670 9.610,350.343 8.191,352.159 9.163 C 352.408 9.296,352.494 9.243,352.634 8.871 C 352.931 8.084,353.334 6.778,353.291 6.742 C 352.731 6.271,350.438 6.078,349.367 6.413 M355.671 6.352 C 353.650 7.159,354.194 10.167,356.362 10.167 C 357.293 10.167,357.901 9.841,358.259 9.150 C 359.108 7.507,357.402 5.662,355.671 6.352 M99.167 17.150 L 99.167 27.833 103.075 27.833 C 107.754 27.833,108.929 27.656,111.167 26.613 C 117.936 23.458,118.444 12.191,112.000 8.123 C 109.825 6.750,109.141 6.617,103.875 6.537 L 99.167 6.466 99.167 17.150 M149.833 17.151 L 149.833 27.833 153.719 27.833 C 159.010 27.833,160.741 27.481,162.984 25.950 C 168.775 21.996,168.665 11.850,162.792 8.219 C 160.288 6.672,160.094 6.632,154.542 6.544 L 149.833 6.469 149.833 17.151 M200.167 17.173 L 200.167 27.846 201.625 27.798 L 203.083 27.750 203.128 23.208 L 203.172 18.667 207.503 18.667 L 211.833 18.667 211.833 17.333 L 211.833 16.000 207.500 16.000 L 203.167 16.000 203.167 12.667 L 203.167 9.333 207.917 9.333 L 212.667 9.333 212.667 7.917 L 212.667 6.500 206.417 6.500 L 200.167 6.500 200.167 17.173 M377.000 17.167 L 377.000 27.833 378.417 27.833 L 379.833 27.833 379.833 17.167 L 379.833 6.500 378.417 6.500 L 377.000 6.500 377.000 17.167 M393.860 10.709 L 393.917 14.917 393.463 14.401 C 390.153 10.629,383.522 13.123,382.248 18.620 C 380.588 25.777,388.886 31.524,393.534 26.436 L 394.000 25.926 394.000 26.880 L 394.000 27.833 395.417 27.833 L 396.833 27.833 396.833 17.167 L 396.833 6.500 395.319 6.500 L 393.804 6.500 393.860 10.709 M245.167 10.917 L 245.167 13.167 243.917 13.167 L 242.667 13.167 242.667 14.417 L 242.667 15.667 243.917 15.667 L 245.167 15.667 245.167 20.058 C 245.167 25.179,245.311 25.904,246.553 27.038 C 247.418 27.827,248.296 28.056,250.094 27.962 C 252.094 27.857,252.121 27.830,251.629 26.397 L 251.235 25.250 250.227 25.250 C 248.283 25.250,248.167 24.940,248.167 19.758 L 248.167 15.667 249.917 15.667 L 251.667 15.667 251.667 14.417 L 251.667 13.167 249.917 13.167 L 248.167 13.167 248.167 10.917 L 248.167 8.667 246.667 8.667 L 245.167 8.667 245.167 10.917 M108.308 9.604 C 114.554 11.402,115.624 21.150,109.895 24.056 C 108.533 24.748,107.925 24.858,104.958 24.952 L 102.000 25.045 102.000 17.189 L 102.000 9.333 104.683 9.333 C 106.663 9.333,107.612 9.404,108.308 9.604 M159.149 9.665 C 162.115 10.557,163.881 12.733,164.147 15.822 C 164.678 22.002,162.058 24.784,155.542 24.963 L 152.667 25.042 152.667 17.188 L 152.667 9.333 155.357 9.333 C 157.561 9.333,158.246 9.393,159.149 9.665 M174.333 12.771 C 165.718 14.467,167.219 28.333,176.018 28.333 C 178.544 28.333,182.667 25.840,182.667 24.312 C 182.667 24.017,180.119 22.907,180.037 23.167 C 179.703 24.212,177.327 25.673,175.974 25.664 C 174.064 25.652,171.920 23.747,171.618 21.794 L 171.522 21.171 177.219 21.127 L 182.917 21.083 182.969 20.455 C 183.189 17.791,181.428 14.467,179.250 13.434 C 178.883 13.260,178.448 13.050,178.282 12.968 C 177.936 12.796,174.959 12.648,174.333 12.771 M218.979 12.812 C 213.380 14.009,211.487 22.255,215.868 26.365 C 219.016 29.318,224.584 28.761,226.999 25.251 C 227.687 24.251,227.650 24.158,226.304 23.539 L 225.120 22.994 224.222 23.987 C 222.353 26.053,219.977 26.187,217.957 24.342 C 217.085 23.544,216.497 22.417,216.499 21.544 L 216.500 21.171 222.125 21.127 L 227.750 21.083 227.806 20.250 C 227.985 17.569,226.206 14.282,224.109 13.418 C 223.728 13.261,223.281 13.062,223.115 12.975 C 222.713 12.766,219.742 12.648,218.979 12.812 M234.083 12.762 C 230.987 13.500,229.324 15.479,229.846 17.807 C 230.277 19.731,231.614 20.720,234.833 21.500 C 237.798 22.218,238.500 22.663,238.500 23.824 C 238.500 26.207,234.101 26.244,232.500 23.875 C 232.179 23.400,231.828 23.009,231.720 23.006 C 231.496 22.999,229.333 23.976,229.333 24.084 C 229.333 24.376,230.334 25.867,230.872 26.378 C 234.653 29.963,241.500 28.247,241.500 23.714 C 241.500 21.083,240.090 19.909,235.657 18.848 C 233.395 18.306,232.771 17.898,232.798 16.975 C 232.852 15.072,236.477 14.712,238.129 16.445 L 238.842 17.193 240.046 16.731 C 240.708 16.477,241.271 16.256,241.296 16.241 C 241.450 16.148,240.910 15.229,240.338 14.607 C 239.025 13.183,236.028 12.299,234.083 12.762 M283.144 12.813 C 282.202 13.013,280.694 13.842,280.155 14.456 L 279.667 15.012 279.667 14.089 L 279.667 13.167 278.250 13.167 L 276.833 13.167 276.833 23.667 L 276.833 34.167 278.348 34.167 L 279.864 34.167 279.807 30.092 L 279.750 26.017 280.174 26.481 C 282.535 29.067,287.031 28.829,289.549 25.986 C 294.444 20.457,290.018 11.353,283.144 12.813 M300.000 12.821 C 298.649 13.112,297.414 13.920,296.810 14.910 L 296.501 15.417 296.501 14.292 L 296.500 13.167 295.167 13.167 L 293.833 13.167 293.833 20.500 L 293.833 27.833 295.250 27.833 L 296.667 27.833 296.667 23.421 C 296.667 19.161,296.680 18.979,297.056 18.129 C 297.784 16.482,299.200 15.607,300.992 15.696 L 302.067 15.750 302.437 14.750 C 302.896 13.511,302.922 13.048,302.542 12.940 C 301.923 12.765,300.557 12.701,300.000 12.821 M317.167 12.820 C 316.156 13.057,315.335 13.491,314.572 14.195 L 313.833 14.876 313.833 14.021 L 313.833 13.167 312.417 13.167 L 311.000 13.167 311.000 20.500 L 311.000 27.833 312.417 27.833 L 313.833 27.833 313.833 23.861 C 313.833 16.842,315.101 14.669,318.723 15.479 C 320.893 15.965,321.167 16.810,321.167 23.021 L 321.167 27.833 322.593 27.833 L 324.020 27.833 323.966 22.125 C 323.905 15.681,323.886 15.575,322.534 14.182 C 321.393 13.006,318.983 12.395,317.167 12.820 M331.547 12.817 C 324.378 14.669,324.330 26.234,331.484 28.066 C 333.738 28.644,336.036 28.035,337.563 26.455 L 338.043 25.958 337.968 27.437 C 337.888 29.021,337.588 29.830,336.754 30.708 C 334.812 32.756,330.985 32.253,329.730 29.785 C 329.580 29.491,329.437 29.226,329.412 29.197 C 329.371 29.150,326.843 30.144,326.689 30.267 C 326.276 30.599,328.222 32.905,329.565 33.675 L 330.417 34.164 333.500 34.164 L 336.583 34.164 337.423 33.682 C 340.537 31.896,340.825 30.776,340.830 20.458 L 340.833 13.167 339.417 13.167 L 338.000 13.167 338.000 14.019 L 338.000 14.872 337.360 14.294 C 335.965 13.034,333.315 12.361,331.547 12.817 M366.083 12.772 C 358.005 14.943,358.414 26.796,366.616 28.194 C 369.384 28.665,372.578 27.285,373.977 25.012 L 374.480 24.194 373.198 23.585 L 371.917 22.975 371.500 23.526 C 369.686 25.923,366.998 26.297,364.894 24.445 C 364.056 23.707,363.210 22.122,363.168 21.211 C 363.167 21.189,365.735 21.151,368.875 21.127 L 374.583 21.083 374.557 19.734 C 374.476 15.602,371.972 12.917,368.045 12.751 C 367.150 12.713,366.267 12.723,366.083 12.772 M183.500 13.490 C 183.500 13.668,183.567 13.855,183.648 13.905 C 183.730 13.956,183.844 14.187,183.902 14.420 C 183.961 14.652,184.185 15.234,184.400 15.713 C 184.615 16.192,184.956 17.033,185.158 17.583 C 185.360 18.133,185.628 18.808,185.755 19.083 C 185.881 19.358,186.629 21.196,187.417 23.167 C 188.205 25.137,188.963 26.997,189.102 27.298 L 189.355 27.846 190.781 27.798 L 192.207 27.750 192.528 26.917 C 192.704 26.458,192.995 25.765,193.174 25.377 C 193.353 24.988,193.503 24.613,193.506 24.543 C 193.509 24.474,193.656 24.117,193.833 23.750 C 194.010 23.383,194.158 23.029,194.161 22.963 C 194.164 22.897,194.342 22.447,194.557 21.963 C 194.772 21.479,195.046 20.821,195.166 20.500 C 195.285 20.179,195.481 19.692,195.601 19.417 C 195.789 18.987,196.671 16.837,197.840 13.958 L 198.162 13.167 196.613 13.167 L 195.064 13.167 194.774 13.824 C 194.615 14.186,193.643 16.684,192.614 19.375 L 190.745 24.269 189.778 21.676 C 188.530 18.328,188.330 17.810,188.150 17.461 C 188.067 17.301,188.000 17.088,188.000 16.986 C 188.000 16.884,187.894 16.564,187.764 16.275 C 187.634 15.986,187.317 15.169,187.059 14.458 L 186.591 13.167 185.046 13.167 C 183.627 13.167,183.500 13.193,183.500 13.490 M304.833 20.500 L 304.833 27.833 306.250 27.833 L 307.667 27.833 307.667 20.500 L 307.667 13.167 306.250 13.167 L 304.833 13.167 304.833 20.500 M177.261 15.580 C 178.205 15.864,179.024 16.567,179.502 17.503 C 180.124 18.722,180.300 18.667,175.822 18.667 L 171.811 18.667 171.924 18.292 C 172.631 15.948,174.807 14.843,177.261 15.580 M222.806 15.870 C 223.661 16.310,224.439 17.287,224.603 18.125 L 224.708 18.667 220.699 18.667 L 216.690 18.667 216.823 18.208 C 217.537 15.758,220.408 14.636,222.806 15.870 M286.265 15.917 C 289.842 18.013,289.293 24.173,285.420 25.394 C 280.466 26.955,277.440 19.626,281.617 16.182 C 282.760 15.240,284.902 15.118,286.265 15.917 M334.648 15.512 C 338.120 16.256,339.217 22.076,336.349 24.531 C 333.303 27.138,329.098 24.802,329.093 20.500 C 329.089 16.898,331.407 14.816,334.648 15.512 M369.707 15.870 C 370.587 16.362,371.319 17.282,371.444 18.054 L 371.544 18.667 367.522 18.667 C 365.310 18.667,363.500 18.635,363.500 18.597 C 363.500 17.774,365.234 15.769,366.115 15.574 C 366.373 15.517,366.658 15.441,366.750 15.405 C 367.204 15.224,369.080 15.520,369.707 15.870 M390.648 15.512 C 394.026 16.236,395.145 21.757,392.446 24.380 C 389.647 27.100,385.298 25.087,385.045 20.953 C 384.816 17.203,387.297 14.793,390.648 15.512 " stroke="none" fill="#040404" fill-rule="evenodd"></path><path id="path4" d="M5.792 12.454 C 6.090 12.491,6.577 12.491,6.875 12.454 C 7.173 12.417,6.929 12.387,6.333 12.387 C 5.737 12.387,5.494 12.417,5.792 12.454 " stroke="none" fill="#8c6ca0" fill-rule="evenodd"></path></g></svg>